<?xml version="1.0" encoding="UTF-8"?>
<svg viewBox="0 0 271.25 128.75" xmlns="http://www.w3.org/2000/svg">
 <g transform="matrix(1.25,0,0,-1.25,0,128.75)">
  <g transform="scale(.24)">
   <path d="m163.484,421.832 5.782-15.453 1.664-2.891 .558-7.449 1.11-2.887 7.004,8.114 8.003,9.672 1.668,2.89 4.004,2.223 8.559-2.223 2.445-1.113 2.782-5.781 .554-4.555-1.668-23.57v-7.336l-3.558-12.672-3.332-5.672 8.558-15.563 5.781-7.449 13.118-9.226 12.007-1.668 8.668,1.668 1.668,1.222 2.336-.668 10.895,4.114 4.558,2.89 .555-.554 1.113,1.113 6.336,4 4.668,1.222h1.668l.668-.667h-.668l-.554-.555h2.886l9.785,5.113 5.114,1.781 7.449,3.446h6.891l-1.778-6.336 4,1.109 3.004,1.113 3.891,2.891h1.109l.668-.555 3.445,2.887 5.118,1.781 5.777,2.778h1.668l1.113,1.113 .668-.555 6.891,2.891 2.222-1.227v-1.664l16.122,1.11 13.117,2.445 4.668-1.891 6.781-1.109 20.68.555 16.007-1.668 1.778-.555 2.336.555 8.449-.555 4.555-1.113 2.89.558v-.558l1.223-1.11 1.668,1.668 2.781-.558h1.778v-.555l4.003-1.109 4-4.672 7.45-1.778h1.109v-.554h4.004v-.559h4.668l2.223-1.668 1.113-2.223 5.226-3.558 14.34-4 15.453-10.227 22.344-21.343h.555l1.222-1.114 1.223-5.113 3.891-3.559 7.449-.554 4.004-2.223 15.562-1.113 1.11-1.11 9.117,1.668 7.559-4.558 8.562-.559 12.559-4.113 16.675-1.664 3.45-1.668 5.113-1.113 6.891-3 9.785-1.668 4-1.782h3.445l1.113-1.109h.555l.668.555 1.113-1.668-3.449-3.446-2.891-1.222 8.563-1.668h9.226l9.782-1.668 9.117-4.668 5.113-2.781 7.449-4.555 3-3.004 9.672-3.336 2.336-3.445-2.89-6.891 4-3.558 8.562-4.446 22.344-23.011 23.012-11.45 14.23-9.23 3-1.668 4-.555 3.336-5.113 5.781-4.559 8.672-2.222 9.117-6.891 6.336-7.449 10.336-6.336 4.004-2.336 14.895-11.449 18.898-9.672 13.121-6.449 6.336-6.223v-1.668l-8.562-2.336h-2.333l-.558-.5547 1.226-3.4453 9.668-13.2304-2.332-1.668-11.449-.668-1.668-1.1093-1.113-3.336-4.668,1.668-5.113,4-5.227,2.3359h-5.113l-1.113-1.7773v-9.2266l.558-.5586-2.336-.5547-5.668,8.0039-6.34,5.2227-8.113,1.7812h-3.336l-1.668-1.2226-4.113.5547-13.117,7.0039-7.004,5.668-1.11,1.1132h-1.113l-1.668-2.8906h-3.554l-3.336,4.0039h-1.223l-8.563,8.0037-4.554,2.332-2.891-5.113-5.117.555-10.336,5.781-9.785,6.226-1.778-2.222-.554-5.781-2.781-.668-27.012,15.007-13.117,5.782-6.895,1.668-11.449,6.336-7.449,5.668h-6.336l-14.895,7.449-8.008,7.558h-10.336l-6.335,4.45-6.34,7.449-1.11,1.109-3.445-3.445-7.449,2.336-6.336,5.668-6.227,8.004-4.668.554-5.672,3.559-7.445,8.004-10.34,15.453-3.445,4-.668-.555-5.672,3.446-4.555,2.226-16.566,9.227-9.781,1.664v1.226l-.668.555-2.223-2.336-2.336-9.781-3.332-3.336-1.226-2.891 .558-1.109-2.336-5.781-2.777-4.559-6.895-13.23-13.117-19.454-2.336.555v1.113l-.554.555-6.891-5.668-5.781-5.672h-2.223l-7.004-6.89-3.89-1.668-2.891,1.668-8.004-9.118-3.559-9.226 .555-7.336-.555-8.117-4.445-4-4.672-1.668-6.222,1.109-9.786,5.227-1.668,1.113-.554-8.117-6.227-8.004-4.113-2.223-29.234-9.2263-1.668-1.1133h-3.446l-7.449-3.4453-20.012-8.0039-.554-.5547h7.336l.558.5547 4.11-1.2226 6.894,1.2226 3.891.5547 3.445-1.1094 4.113-4.1132 5.004-10.2305-1.113-3.4453-5.668-7.4492-4.004-2.3321h-12.562l-1.223-1.1133v-.6679l9.785-6.2227 6.223-8.5625 .668-7 2.89-5.0039-1.222-3.0039-1.11-3.332-1.781-.668 1.223-2.7812 1.113-1.2227-4.004-6.22266-2.332-2.33594h-9.117l-.555-.66797-5.226-.55469-4.559,3-1.109,1.11329v2.77734l-9.786,15.00783-10.894,9.1172-13.227,9.2265h-1.668l-6.336,4.5586-2.89.5547-8.004,5.7813h-5.672l-5.777-2.336-4.559,1.1133-10.34,4.0039-6.336,5.2227h-2.89l-8.559,10.3398-1.223,2.7774-2.226,2.8906-.555,2.3359-4,5.668-7.449,15.0078-3.445,5.004-17.789,26.457-7.45,8.559 1.114,2.89-5.114,5.227h-.668l-1.668-4.668-9.113,5.781-.668-.559 1.223-1.222-2.336,1.222-18.344,13.008-1.109-1.668-1.114-1.109-8.671,5.113-5.778,7.445-2.226,2.336-1.11-1.222h-1.668l-8.117,9.781-2.222,5.113-.555.559h-1.223l-1.222-1.668-8.559,10.894-6.781,13.231-1.782-5.227v-.554l-.554-.559 .554-.555-.554-5.781-1.778-1.668h-.558l-4.559,9.672-3.445,11.453-1.223,1.11-1.668,11.562-.554.555h-.555l-1.668-4.559v-1.777h-1.113l-1.223-1.113-.668.558-2.223,6.336 1.114,1.223-1.668,1.668-.555,7.449-1.223,4-.558.555-.555-1.668v-1.778h-1.113l-1.11-1.109-1.222,10.336-2.336,12.562-1.668,13.231-5.7814,6.781v1.109l-4.5547,2.446-5.7813,1.113-6.2265-3.559-5.7813-2.222-30.9023-2.778-2.8907,1.11-5.6718,6.336-1.1094,3.89v.668l9.6719,4.559h2.8906l8.5586,5.113h1.668l2.8906,2.336v.555h-4.5586l-9.1172-2.891-8.1133.555-8.0039.558-7.4492,4.114-11.4492,13.672-2.336,3.558-.5546,4-3.89067,3.336-2.44922,4.113-3.33203,4.004 1.66796,5.782 2.89063,2.222 8.00393-1.668 1.1094-1.222 8.0039.668 5.7812,1.664h8.1172l2.2227,1.113h6.3359l8.0039,2.777 9.7812,4.114 3.336,4.558 3.4453,1.781 3.0039,3.446 5,4.558 .668,2.332 8.0039,5.672h1.1133l4.6679,4.668 8.0039,2.778h2.8905l8.559,2.89 9.785,1.113 2.223,1.223h.554v-3.558l-.554-.555v-.555l.554-.558 2.336,2.335v6.891l9.117,11.453 12.118,18.344 2.89,1.664 8.559-1.109 4.558-2.891zm224.668-260.246l-7.445,19.457-1.668,11.559-5.672-9.227-3-1.223-1.668,1.782-4.558-5.782-5.114-1.113-1.222,5.113-3.446-4.554v-1.668l-4.558-5.227h-4.004l-1.109,1.777 1.109,5.118-4-4.559-4.004-1.781-2.332,2.336-6.895-9.117h-1.109l-1.113,1.668v-2.223l-1.778-2.336v-6.781l10.336,6.226 10.895,3.446 9.785.558 6.227-1.781h7.445l19.566-4.445-.668,2.777zm-37.242-24.457l-17.785-4.113-6.227,4.113-.554-.664 1.668-16.567 2.336-14.449 2.222-5.113h1.11l11.562,6.891 10.895,3.445 13.676,4.004 18.339,8.004 5.227,3.445-13.785,4.004-5.668.664-6.895,2.223-16.121,4.113" fill="#231f20"/>
   <path d="m157.258,410.938 2.222-30.907v-5.781l-5.222-16.008 1.109-1.222h.668l1.223,1.222 1.113-2.332-3.004-7.449-1.668-.555-1.668-3.449 1.114-1.664h2.222l5.781,8.445 1.223,5.782-.555,2.335-2.336,2.336 3.446,10.895-.555,25.121-1.777,15.566-2.223,6.891v.555l2.777-1.11 5.782-15.566 1.222-1.109 1.114-9.118 1.664-2.332 .558-5.226 1.11-3.336v-4.113l1.222-1.668v-3.446l2.891-6.89 .559-.559 1.109-5.223h1.223l1.668,1.778-.555,5.113-4.004,9.785-.555,6.336-.554.555 9.113-8.004 5.672-8.113-.559-.559 2.336-3.891 .555-4.668 1.781-4.003 1.109-4.668 3.45-2.778 8.558-15.566 8.672-8.559 8.004-5.113 6.781-1.113 16.117.558 9.118,1.668 8.113,4.668 1.113,1.11 8.559,4.558v-1.668l1.222-1.222 6.895,2.336 2.777,2.222 5.227,2.445 5.113,3.336 9.117,3.446 4.114.558v-2.336l-1.782-2.781-1.109-1.109 2.332-2.336 7.34,2.89 23.566,12.008 6.891,1.11 1.223-2.778h6.226l13.785,2.223 6.895,1.668 5.113-.555 1.109-1.113 29.239-.555 26.347-1.668 4-1.222 15.454-.559 1.667-1.109 3.559-4.114 3.332-1.668 15.567-2.222 3.332-4.672 7.562-3.445 10.781-2.778 5.227-4.113 4.558-2.223 1.665-1.668 .558.555 21.899-20.121 .554-1.777 2.227-1.114v-2.336l8.668-8.004 8.004-1.664 1.113-1.113 6.336-.555 4.004-1.781h6.336l4-1.777 8.004,1.777 6.339-4h8.004l17.231-5.113h1.109l15.453-1.781 3.446-2.891 16.121-4 8.004-3.445-2.223-1.114-.668-1.777 2.891-2.226 11.449-.555 12.008-2.332 8.004-4.004 10.339-2.891 4.668-2.777 5.668-5.227 1.782-1.668h2.777l.668.555-.668.559 3.445-1.668 1.782-2.336-1.223-4.114-1.668-1.667v-2.223l9.672-6.336 5.222-2.891 9.227-9.117 7.449-8.113 .555-2.781 8.004-4.668 18.344-8.004 9.785-5.668 1.109-1.782 1.777-3.445 9.118-2.89 1.777-3.446 5.672-4.445 8.004-2.227 8.558-6.336 13.899-12.003 2.777-1.782 .555-.554h.558l.555.554-.555-.554 6.336-5.223 17.786-12.008 16.675-8.004 2.891-.554 9.672-5.782 1.668-2.222v-1.223l-8.559-2.2266-1.113-1.2227 1.668-4.5547 9.226-11.4531v-1.1094l-12.007-.6679-2.332-2.8907-.559-.5546-7.445,5.2226-5.782,1.668h-6.226l-3-4v-2.336l-9.117,7.5586-14.231,2.7813-2.332-1.1133-6.894,1.668-9.782,6.3359-8.004,7.5586h-1.113l-1.777-2.8906v-1.2227h-1.777l-13.122,11.5623-4,2.223-1.781.555h-1.664l-2.336-5.778-8.004,3-16.676,10.895h-1.113l-1.664-2.336-1.113-6.891-27.012,13.672-17.789,8.117-8.004,2.778-4,2.445-9.785,7.894-4-1.668-14.344,6.336-7.445,8.004-2.227,2.227-4.113-2.227-7.336,1.668-5.222,3.891-7.45,9.785-1.777.555-2.781-4.559-.555-.555-8.672,4.559-7.449,8.559-2.223,4.668-1.777.558-1.113-1.668-2.336.555-8.668,6.227-13.121,19.566-7.446,6.781-4.558,1.11-10.34,7.558-10.895,4.004-4.558.555-.555,1.222-4.113,1.668-2.778-1.113-2.89-5.777-2.891-5.672-1.777-7.449-9.117-11.45-.555-.554-1.113,3.89-1.778.555-2.781-4.445-4.113-8.672-2.778-2.891 1.11,3.446v1.668l-.555.667h-1.668l-12.117-12.671-3.445-.559-10.34-10.336-5.113-2.336v1.113l.554.664-1.109,1.114-3.449-1.114-1.778-1.777-13.672-3.89-6.894-5.782-3.555-1.668-7.34-8.004-2.777-5.668-4.004-22.457 1.668-7.449-1.109-4.558-6.34-5.778-26.344-8.5623-2.89-1.1094-4.559-.5585-20.676-8.668-6.781-2.2266-11.563-6.3359-2.89-.5547-1.114-1.7773-12.562,10.8945-.555-.5586-1.109,4.1133-2.449,3.8906v2.3359h1.781l6.336,4.668 10.226,5.004 16.676,5.223 8.114,2.336 17.675,8.558 4.559,2.891 3.558,8.004-2.445,4.672-5.672,17.785-11.336,33.574-1.89,29.793-2.223,12.672 .555,22.902 2.336,24.68 4.554,15.449 6.895,8.562 8.672,7.004 20.566,9.114 22.231-4.559 1.113,1.227-2.777,2.222-20.012,4-8.563-2.332-14.449-7.449-5.672-2.891-8.558-9.671-3.446-4.668-1.777-7.34-1.668-4.668-1.668-12.004-1.223-13.785 .665-36.02 2.226-20.789-2.226-3.336-2.333-7.004-1.777-1.668-2.336,3.45h-1.113l-5.113-8.563-2.332-2.332-.559,4.113v1.668l-1.109,1.11h-1.114l-8.672-12.004-1.109-1.114 1.109,8.559-1.109,1.781-.558.555-8.668-9.227 1.777,4.559-1.223,2.332h-.554l-.559.559-9.672-12.676-1.223,3.558-2.222,1.668-2.336-2.222-1.223-6.336-1.664.554v-16.566l2.887-34.348 .558-4.558 3.446-14.34 1.222-5.2266 1.114-6.3359 6.336-5.6719 13.117-9.668 15.008-16.1211 1.668-1.6679 1.109-4.1133 4.004-.5547 12.672-9.2266-.555-.5586 7.336-15.3398-.555-4.1133-.554-.5547v.5547l-.559.5547h-1.223l-1.668-2.2227 2.336-6.3359-2.336-3.99999-1.109-1.11328-2.891,1.11328-5.113,8.55859-2.336-.5547v-4.0039l2.336-3.99999v-1.11328l-2.336-1.11329-4,1.66797-6.226,12.00779-5.227,7.4492-13.227,11.4493-6.894,3.4453-6.336,5.1133-26.902,15.5664-9.227,9.7812-3.891,8.0039-8.671,17.7852-5.668,7.3396-15.453,23.567-7.004,9.781-11.45,17.789-14.898,14.117-9.781,10.34-.559-.555-1.109,3.446-8.004,12.671h-1.223l-6.226,13.118-2.891,8.562 1.113,8.113 4.114,7.45 5.668,6.89v4.559l-1.11,3.445-1.781-2.332v-5.113l-10.895-13.785 .668-15.453 5.668-10.34 11.453-18.899 2.332-3.445 .559.555 3.445-5.114 21.789-22.343 4.559-6.782 4.668-8.562 1.668-1.777-.559-.668-5.222,4.113-8.559,2.223-2.891,1.113-2.781,4.113-1.777-.555-.555-.668v-1.113l-2.336.559-9.785,11.004h-1.664l-1.113-1.223 1.113-3.445-.559-2.336-15.562,12.008-2.223-.555-.554-1.113-6.895,8.004-.555,1.113-1.781,1.664h-1.664l-1.668-1.664 .555-2.891v-1.781l-.555-.555-5.226,4.668-9.227,12.008h-2.777l-1.114-1.223-6.336,9.227-5.781,15.008-2.89-1.891v-6.781l-8.559,14.23-2.336,7.004-3.336,3.891h-1.223l-1.222-1.113-1.11-14.786-6.226,17.676-4.113,19.567-1.114,1.113h-1.668l-2.89-11.453-2.887,16.566-.559,9.113-1.668,3.004h-1.777l-1.113-2.336v-3.445l-2.891,24.012-4,9.226-4.004,1.778-2.8904,2.226-5.668,2.332-6.3359-1.222-6.3359-3.891-7.4493-1.223-24.6797-2.336h-1.6679l-4.1133,4.114v.558l18.3437,1.668 14.4532,8.114 4.5547,4.445-.5547,4.113-2.3321,2.227-4.0039,1.222-1.2226,1.11-9.1172-2.332-12.5586-3.336h-7.0039l-7.8945.554v.555l-5.2266,1.668-12.5586,13.117-2.3359,4.672v1.778l.5547-.668 2.8906,2.89-.5547,5.227-1.7774,1.668v1.668l2.3321,2.332 10.8945,2.89h8.6719l3.3359,1.114h4.668l13.1172,4 7.4492,5.226 17.7852,18.344 6.2265,3.445 4.668,4 19.4567,4.559 7.004,1.113h2.223l-6.895-14.898 1.114-3.446h2.332l1.781,8.004 3.336,6.45 4.668,4.445v7.558l17.676,23.457 4.668,5.114 3.336-3.336 2.445-8.113" fill="#ea9e69"/>
   <path d="m14.9648,337.121c8.8907,1.668 43.6875,5.559 43.6875,9.563h2.7774c0,1.332 7.1172,7.004 7.1172,9.89 2.7773,0 4.2226,4.227 7.0039,4.227 0,5.668 23.3437,12.34 26.2342,13.672l5.336,2.558c5.336,0 6.227.223 11.785,1l1.555,2.559h-1v5l-5.891-1-19.4567-4.668-4.668-3.891-6.2265-3.445-17.7852-18.344-7.4492-5.226-13.1172-4h-4.668l-3.3359-1.114h-8.6719l-10.8945-2.89-2.3321-2.332v-1.559zm105.1642,44.692c8.004,1.109-5.895,1.222 1.668,1.222v-2.113l2.223-.109-3.891,1zm60.695-19.458c.778-2 1.668-3.777 2.223-4.445h1.445c0,0 0-2.777 2.781-2.777v-2.891c1.446,0 17.008-24.015 17.008-25.347l13.231-3.668-9.895,9.113-8.558,15.566-3.45,2.778-1.109,4.668-1.781,4.003-.555,4.668-2.336,3.891 .559.559-5.672,8.113-9.113,8.004 .554-.555 .555-6.336 4.004-9.785 .555-5.113-.446-.446zm85.934-36.128c2.558.554 5.226,1.113 7.894,1.668l-3.449-4.446 2.891,6.668-7.336-3.89zm7.558-4.559 10.672,10.117 5.227,2.445 5.113,3.336 9.117,3.446 4.114.558v-2.336l-1.782-2.781-1.109-1.109 2.332-2.336 7.34,2.89 23.566,12.008 6.891,1.11 1.223-2.778h6.226l13.785,2.223 6.895,1.668 5.113-.555 1.109-1.113 29.239-.555 26.347-1.668 4-1.222 15.454-.559 1.667-1.109 3.559-4.114 3.332-1.668 15.567-2.222 3.332-4.672 7.562-3.445 10.781-2.778 5.227-4.113 4.558-2.223 1.665-1.668 .558.555 21.899-20.121 .554-1.777 2.227-1.114v-2.336l9.004-9.336c-5.004.555-13.563,6.336-15.899,6.336 0,1.446-1.332,2.891-1.332,4.223-2.89,0 0,1.445-2.89,1.445v2.782c-2.782-1.778-7.004,3.113-7.004,3.113-1.446,0-5.672,4.668-5.672,4.668l-7.559,2.113c-46.691,38.242-107.609,27.57-161.304,27.57 0,5.668-11.563-12.785-10.118,2.778-7,0-31.679-14.117-38.797-16.899 0,2.782 2.114,4.227 2.114,7.004-6.004,0-16.231-4.113-23.903-5.781zm350.957-53.246c-.445-1.445-6.113-2.336-19.453-2.336 11.227-11.34 31.016-5.672 46.578-11.34v-1.445h4.227c-1.336-1.446-2.781-2.778-2.781-4.223l1.445-1.445c5.672,0 18.344-5.672 24.012-7.004 8.449-1.445 17.012-5.672 24.015-7.117 0-2.778-4.226-7.114-4.226-9.891 7.113-7.117 25.457-14.23 42.242-18.566l-7.559,7.558-5.222,2.891-9.672,6.336v2.223l1.668,1.667 1.223,4.114-1.782,2.336-3.445,1.668 .668-.559-.668-.555h-2.777l-1.782,1.668-5.668,5.227-4.668,2.777-10.339,2.891-8.004,4.004-12.008,2.332-11.449.555-2.891,2.226 .668,1.777 2.223,1.114-8.004,3.445-16.121,4-3.446,2.891-7.004.781zm131.512-79.152c-1.222-.668-2.445-1-4-1 0-8.227 25.121-16.344 37.129-19.012l-1.668,3.222-1.109,1.782-9.785,5.668-18.344,8.004-2.223,1.336zm38.465-21.903v-4.558c14.008-13.895 31.348-28.903 51.027-31.903l-5.336,4.446 .555.554-.555-.554h-.558l-.555.554-2.777,1.782-13.899,12.003-8.558,6.336-8.004,2.227-5.672,4.445-1.777,3.446-3.891,1.222zm56.25-40.129c-.332-.336-.664-.668-1.109-1.113h-2.782c-1.445-1.445-7.113-5.668-9.894-7.004 1.336,0 4.226-2.891 4.226-4.336h4.223c0-2.777 5.672-1.332 7.117-1.332v-1.445c1.332,0 7.004-1.445 8.449-1.445v-1.336h2.778c0-1.446 0-5.668-1.336-5.668 8.008-8.0043 18.789-11.5629 28.793-16.2309l-4,5.0039-1.668,4.5547 1.113,1.2227 8.559,2.2266v1.223l-1.668,2.222-9.672,5.782-2.891.554-16.675,8.004-13.563,9.117" fill="#efb182"/>
   <path d="m163.262,266.086c0-12.785 5.668-28.348 5.668-39.688 2.781,0 9.894-11.226 11.34-12.671 0-1.446-1.446-5.672-2.891-5.672 0-1.446 1.445-5.668 1.445-7.114h1.446v-2.781l2.777-1.445c0-4.223 7.117-9.891 9.894-12.672 0-9.895 9.895-22.68 18.454-28.234 0-1.004 2.226-3.672 5.339-6.782l.664-.558 .559,2.336-1.113,3.445 1.113,1.223h1.664l9.785-11.004 2.336-.559v1.113l.555.668 1.777.555 2.781-4.113 2.891-1.113 8.559-2.223 5.222-4.113 .559.668-1.668,1.777-4.668,8.562-2.781,4.223c-2.668,1.891-5.668,5.113-6.781,7.34-4.223,0-7.004,2.777-8.45,5.555-5.781,0-17.562,18.566-24.789,36.687l-1.336,2.223-5.668,10.34-.668,15.453 10.895,13.785v5.113l1.781,2.332 .777-2.222c.446,2.781.665,5.89.665,9.562 1.335,1.445 4.226,5.668 5.558,5.668l1.445,1.445c0,8.45 1.446,29.68 12.786,29.68 0,1.445 1.336,2.891 2.781,2.891 0,2.781 7.113,8.449 8.449,9.894 0,1.336 1.445,2.781 1.445,4.227h-7.117c0-2.891-1.332,0-1.332-2.891h-2.89c-1.336-1.336-2.782-2.781-4.227-2.781 0-4.223-12.672-11.34-12.672-15.563-4.226,0-9.894-2.777-14.23-2.777l-1.332,1.332v1.445h-1.446l-1.445,1.446c0,2.777-4.227,5.668-4.227,8.449l-1.445,1.445h-25.457c0,4.223-7.004,11.34-7.004,15.563l-1.445,1.336c-1.445,0-4.223-2.782-7.004-2.782-1.445-1.445-2.887-4.222-4.332-5.668v-15.566c1.445,0 4.332-2.777 5.668-2.777l11.34-24.012zm41.91-32.574 .223.336 1.554,1.89c-.332-.668-.777-1.445-1.222-2.226h-.555" fill="#dd9565"/>
   <path d="m79.2188,355.02c-1.4454-.668-8.4493-5.559-9.2266-5.559l-.668-.777-.6679-1.446c.6679,0 1.3359-.668 2.1132-.668 4.8907-7.781 13.4493-2.113 21.2344-9.894v-1.446h.6641v-4.222c-.6641,0-1.4453-1.445-1.4453-2.113l-8.4454-2.778c.6641-.781 13.4493-1.445 13.4493-2.113 8.4494,0 10.5624,2.777 16.8984,5.559 .777,2.89 8.559,10.003 11.34,10.671 0,1.446 1.445,2.782 2.109,3.559v1.332c.781,0 1.446,1.445 1.446,2.113-6.336,0-16.231,2.891-22.676,2.891 0,.668-5.5588,3.559-6.3401,4.223l-19.7851.668" fill="#f8d3b5"/>
   <path d="m203.61 407.49 1.223-6.226-1.777-14.453-0.668-17.786-4.446-12.007-2.89 8.671-1.223 4.004-7.894 10.895-10.336 9.113 2.222 5.781 11.449 12.563 3.446 4.668 8.562-1.777 2.332-3.446" fill="#dd9565"/>
   <path d="m95.7813,354.242 5.7817-6.336v-2.222l2.335-1.227 9.672,2.336-.558-1.777v-1.114l-8.559-2.332-5.7811,1.778-4.5586,2.89-17.7852.555-2.2226,2.223 1.1093,1.668h1.668l2.8906,2.445v1.668l2.336.555 1.1094,1.668 8.6718-1.11 3.8907-1.668" fill="#231f20"/>
   <path d="m92.445 350.13-4.668-1.113-0.5546 4.113h2.2226l3-3" fill="#fff"/>
   <path d="m11.516 338.68 1.2227-4.45 1.1133-1.222-1.7774-0.668h-1.6679l-5.7813 7.562v2.891l2.4453 1.664 5.668-2.332-1.2227-3.445" fill="#656263"/>
   <path d="m74.106 303.1-10.895-8.562-12.117-2.223-5.1133 0.555h-1.668l7.3359 2.227 3 2.332 6.7813 2.336 7.4492 6.89 5.2266-2.332v-1.223" fill="#c78c62"/>
   <path d="m222.512,286.539-2.891-7.445-.555-14.899-1.109-1.113-1.113.559 1.113,6.336 1.109,15.339 2.891,4.114 9.117,5.113 1.223.559 .555-.559-10.34-8.004" fill="#231f20"/>
   <path d="m515.441,186.824-6.894-12.562-.555-.668v.668h-4.113l-10.895-10.34h-2.777l-9.785-9.672-3.445,2.336-5.782-4.113-5.781-6.782-4.445-11.562 .554-13.117-1.777-2.336-3.445-2.332-4.559.664-4.668,2.89-5.672,1.668-2.777,1.668h-.559l-.554-.554v8.672l3.336,14.894 5.668,7.336 11.007,8.563 16.008,6.335 1.668-1.667 5.781,2.222 5.223,4.559 1.113-1.114 4.559,1.782 6.891,7.89-.555.668 6.223,5.668v-3.332l.668-.558 2.89,1.113 .555-.555 7.449,9.672 1.668,4.555 1.668-1.664 1.777.554 4.004,2.891-4.558-8.562-5.114-5.778" fill="#dd9565"/>
   <path d="m364.809,159.363 9.671-.554 14.34-4.004 .555-.555h1.113l7.45-24.121h-2.782l-7.004,2.332-17.785,4.004-6.781,1.223-12.676,3.332h-5.668l-5.222-2.778h-2.227l-2.891-.554-3.445,1.109-1.109,1.113 1.668,6.336 6.89,5.668 5.782-.555h1.109l1.223,1.114-1.778,3.554-7.449-1.222-12.672-11.45v2.891l1.777,2.223v2.336l5.672,4.668 9.227,4.449 6.891,1.664 10.339-.555 5.782-1.668" fill="#917662"/>
   <path d="m244.859,136.465 7.559-5.672 3.336-.664 8.113-9.672 2.781-5.227 5.778-7.449 2.89-6.222 .559-.559h.555l.554.559v1.664l8.563-15.5628 2.332-6.2266-.555-1.6641-6.336-2.3359-3.445-2.3359-.559-1.668v-2.2227l2.891-3.5547-.555-.5585v-.5547l-5.781,6.3359-9.672,16.6758-11.449,20.0122-20.121,28.125-2.336,3.332 8.004-3.891 6.894-.664" fill="#dd9565"/>
   <path d="m391.043,75.6563-5.668-1.1133h-1.113l-1.778-1.668 .668-2.3359h9.114l1.668-.5547 2.89-5.2227-5.781-8.0039-2.223-1.1133h-9.781l-6.894-1.6679-9.227,8.0039-10.34,11.4492 7.004,2.7812 1.113-1.1132 5.227.5586 1.664-1.668 1.113,1.668h5.781l.555.5546-2.332-3.3359 2.332-1.668 7.449,5.5586 2.332.668 5.118-.668 1.109-1.1093" fill="#917662"/>
   <path d="m306.777,57.3125 .668-.5547-4.113-1.668-9.117,2.7774-2.332,1.2226v1.7813l-4.004.5547-1.777.5547-1.668,2.7812 .554,4.5586-2.777,3v1.1094l5.668,2.7812 1.781.5547 8.004-12.0039 9.113-7.4492" fill="#ac8567"/>
   <path d="m17.7422,333.121c0-1.336.668-2.781.668-4.226 12.0039,0 31.125-5.668 46.0234-5.668 0,.777 4.8906,1.445 5.5586,1.445 6.4453,2.109 46.0238,4.223 46.0238-5.004l1.332-.668c0-1.445.777-2.109 1.445-2.777 0-5.672 5.672-14.118 5.672-20.567 .664,1.446 1.445,2.891 1.445,4.223h3.555c0-7.004-1.445-31.016 5.558-34.57 0,2.109 0,3.554 1.446,5.668 .777,0 2.113.668 2.89.668 0-14.786 4.227-37.465 9.895-49.469 0,1.445 1.332,5.668 1.332,6.336 1.445.777 3.559,2.109 5.004,2.109 5.668-5.668 9.894-24.68 14.785-32.461 0,3.559 2.891,18.344 8.559,18.344 9.117-9.113 10.562-23.344 19.011-31.793 2.114,0 5.668.668 7.782.668 0-2.781 9.226-13.34 7.781-14.785 2.113-2.114 7.781-6.34 7.781-7.785 1.336,0 7.004-4.114 7.004-4.114v-1.441c8.117-6.117 17.008-10.008 22.902-18.012l1.223-2.113 .777-.887c.223-.336.446-.777.668-1.222l-.336-.336-5.222,4.113-8.559,2.223-2.891,1.113-2.781,4.113-1.777-.555-.555-.668v-1.113l-2.336.559-9.785,11.004h-1.664l-1.113-1.223 1.113-3.445-.559-2.336-15.562,12.008-2.223-.555-.554-1.113-6.895,8.004-.555,1.113-1.781,1.664h-1.664l-1.668-1.664 .555-2.891v-1.781l-.555-.555-5.226,4.668-9.227,12.008h-2.777l-1.114-1.223-6.336,9.227-5.781,15.008-2.89-1.891v-6.781l-8.559,14.23-2.336,7.004-3.336,3.891h-1.223l-1.222-1.113-1.11-14.786-6.226,17.676-4.113,19.567-1.114,1.113h-1.668l-2.89-11.453-2.887,16.566-.559,9.113-1.668,3.004h-1.777l-1.113-2.336v-3.445l-2.891,24.121-4,9.117-4.004,1.778-2.8904,2.226-5.668,2.332-6.3359-1.222-6.3359-3.891-7.4493-1.223-24.6797-2.336h-1.6679l-4.1133,4.114v.558l18.3437,1.668 14.4532,8.114 4.5547,4.445-.5547,4.113-2.3321,2.227-4.0039,1.222-1.2226,1.11-9.1172-2.332-12.5586-3.336h-7.0039l-7.8945.554v.555l-5.2266,1.668-12.5586,13.117-2.3359,4.672v1.778l.5547-.668 2.8906,2.89-.3321,2.559 .7774.445" fill="#f8d3b5"/>
   <path d="m276.43,254.746c33.906-39.574 72.035,18.344 100.383,18.344v-8.34l-.665-7.445 .665-36.02 2.226-20.789-2.226-3.336-2.333-7.004-1.777-1.668-2.336,3.45h-1.113l-5.113-8.563-2.332-2.332-.559,4.113v1.668l-1.109,1.11h-1.114l-8.672-12.004-1.109-1.114 1.109,8.559-1.109,1.781-.558.555-8.668-9.227 1.777,4.559-1.223,2.332h-.554l-.559.559-9.672-12.676-1.223,3.558-2.222,1.668-2.336-2.222-1.223-6.336-1.664.554v-16.566l2.887-34.348 .558-4.558 3.446-14.34 1.222-5.2266 1.114-6.3359 6.336-5.6719 13.117-9.668 15.008-16.1211 1.668-1.6679 1.109-4.1133 4.004-.5547 12.672-9.2266-.555-.5586 7.336-15.3398-.555-4.1133-.554-.5547v.5547l-.559.5547h-1.223l-1.668-2.2227 2.336-6.3359-2.336-3.99999-1.109-1.11328-2.891,1.11328-5.113,8.55859-2.336-.5547v-4.0039l2.336-3.99999v-1.11328l-2.336-1.11329-4,1.66797-6.226,12.00779-5.227,7.4492-13.227,11.4493-6.894,3.4453-6.336,5.1133-26.902,15.5664-9.227,9.7812-3.891,8.0039-8.671,17.7852-5.668,7.3396-15.453,23.567-1.446,2c.11.777.223,1.445.332,2.222 8.563,0 14.231-15.562 22.68-15.562 0,5.672 4.223,15.562 5.668,18.344 1.445,0 7.004-1.336 7.004-2.782 9.894,9.895 14.23,35.242 14.23,49.36-1.445,0-8.558,17.007-9.894,18.343h-1.446c0,1.446-5.668,5.668-5.668,7.114-15.566,0-19.789,36.797-18.343,46.691zm103.386,1.555-.222-1.887-.555-22.902 2.223-12.672 .668-11.117c.554,17.453-.559,36.906-2.114,48.578zm-42.578-158.7463-1.777-1.2227h-1.781v-2.3359l1.113-1.7773c.109,1 .445,1.8906 1,2.7773h1.445v2.5586zm-.109-11.4492 .109-.1133v.1133h-.109zm9.113-6.7813 4.113-3.6679 .668,1.1093c-1.668.7774-3.335,1.668-4.781,2.5586" fill="#dd9565"/>
   <path d="m525.113,261.75c-2.781-8.449-7.004-18.344-11.23-25.457-7.113,0-12.781,0-19.785,7.113-9.895-21.23-14.231-22.676-32.575-22.676 0-2.781-25.343-22.57-26.789-22.57v-2.777c-4.226-4.336-5.671-18.453-11.23-24.125l-1.445-52.137c-1.446,0-7.114-5.668-7.114-5.668h-5.668v-1.445c-2.781-1.445-9.894,1.445-12.675,0v-1.445h-4.223v-1.336c-9.895-5.668-28.348-11.3403-38.242-17.0082v-1.4454c-2.223-1.1132-13.231,1.336-19.899,2.336l1.891-3.0039 1.109-4.1133 .555.5586 12.562-10.8945 1.114,1.7773 2.89.5547 11.563,6.3359 6.781,2.2266 20.676,8.668 4.559.5585 2.89,1.1094 26.344,8.5623 6.34,5.778 1.109,4.558-1.668,7.449 4.004,22.457 2.777,5.668 7.34,8.004 3.555,1.668 6.894,5.782 13.672,3.89 1.778,1.777 3.449,1.114 1.109-1.114-.554-.664v-1.113l5.113,2.336 10.34,10.336 3.445.559 12.117,12.671h1.668l.555-.667v-1.668l-1.11-3.446 2.778,2.891 4.113,8.672 2.781,4.445 1.778-.555 1.113-3.89 .555.554 9.117,11.45 1.777,7.449 2.891,5.672 2.89,5.777 2.778,1.113 4.113-1.668 .555-1.222 4.558-.555 10.895-4.004 10.34-7.558 4.558-1.11 7.446-6.781 13.121-19.566 8.668-6.227 2.336-.555 1.113,1.668 1.777-.558 2.223-4.668 7.449-8.559 8.672-4.559 .555.555 2.781,4.559 1.777-.555 7.45-9.785 5.222-3.891 7.336-1.668 4.113,2.227 2.227-2.227 7.445-8.004 14.344-6.336 4,1.668 9.785-7.894 4-2.445 8.004-2.778 17.789-8.117 27.012-13.672 1.113,6.891 1.664,2.336h1.113l16.676-10.895 8.004-3 2.336,5.778h1.664l1.781-.555 4-2.223 13.122-11.5623h1.777v1.2227l1.777,2.8906h1.113l8.004-7.5586 9.782-6.3359 6.894-1.668 2.332,1.1133 14.231-2.7813 9.117-7.5586v2.336l3,4h6.226l5.782-1.668 7.445-5.2226 .559.5546 2.332,2.8907 12.007.6679v1.1094l-8.226,10.2266c-12.895,5.6718-25.68,12.7855-37.129,15.2305 0-1.445 1.445-4.223 1.445-5.668-14.23,1.445-39.687,32.57-52.363,32.57 0,1.446-4.223,5.672-4.223,5.672 0-4.226 0-11.34-1.445-14.23-15.562,15.562-35.352,28.347-49.469,46.578-4.226-4.223-15.562-18.231-15.562-23.899-2.891,0-22.68,35.239-25.461,38.02l-4.223-15.453c-12.785,0-36.797,18.344-42.465,28.234 0-1.445-2.781-4.222-4.226-5.668-11.34,0-38.129,12.785-43.801,22.68-4.223,0-8.559,7.004-12.781,8.449-7.004,12.672-43.801,55.137-65.035,42.465v-1.445l-7.114-2.891zm-193.988-175.3125 5.559-5.0039 13.117-9.668 5.89-6.4492c-2.332.4453-4.781.8906-7.226,1.4453-2.777,0-7.004,4.2227-11.227,4.2227-2,5.0039-4.781,10.0078-6.113,15.4531" fill="#dd9565"/>
   <path d="m438.96 300.99-24.348 4.336-27.343-27.348 2.89-48.914 15.785-25.902 24.457 28.793 27.235 33.016-2.891 28.793-15.785 7.226" fill="#ea9e69"/>
   <path d="m436.29 297.43c-7.004 1.222-13.894 2.445-20.789 3.668l-23.234-23.231c0.781-13.898 1.558-27.793 2.445-41.578 4.449-7.336 8.894-14.676 13.453-22.012 6.891 8.114 13.785 16.231 20.789 24.457 7.668 9.34 15.34 18.676 23.121 28.125-0.886 8.117-1.668 16.231-2.445 24.457-4.559 2-9.004 4.004-13.34 6.114" fill="#eaa06d"/>
   <path d="m433.51 293.88c-5.782 1-11.453 2-17.121 3l-19.121-19.121c0.668-11.449 1.332-22.899 2-34.238 3.668-6.118 7.339-12.118 11.007-18.122 5.782 6.668 11.45 13.34 17.118 20.122 6.449 7.671 12.675 15.453 19.011 23.121-0.668 6.781-1.336 13.453-2 20.125-3.672 1.664-7.226 3.445-10.894 5.113" fill="#eca673"/>
   <path d="m430.73,290.32c-4.558.778-9.003,1.555-13.449,2.336l-15.008-15.008c.442-9.007 1-18.011 1.555-26.902 2.891-4.781 5.781-9.562 8.672-14.23 4.445,5.222 9.004,10.558 13.449,15.785 5.004,6.113 10.008,12.117 14.899,18.23-.446,5.227-1,10.563-1.559,15.785-2.777,1.336-5.668,2.668-8.559,4.004" fill="#eca977"/>
   <path d="m427.953,286.762c-3.226.554-6.562,1.113-9.785,1.668-3.668-3.668-7.336-7.227-10.895-10.895 .336-6.558.668-13.117 1.114-19.566l6.336-10.336c3.222,3.777 6.449,7.668 9.781,11.449 3.668,4.445 7.226,8.895 10.894,13.231-.332,3.89-.777,7.667-1.109,11.558-2.113.891-4.226,1.891-6.336,2.891" fill="#efad7d"/>
   <path d="m425.17 283.2-6.113 1.004-6.895-6.781 0.781-12.231 4-6.445 6.114 7.113 6.781 8.336-0.664 7.117-4.004 1.887" fill="#efb182"/>
   <path d="m223.29 259.97-2.891-8.004-8.672-23.68 4.336-26.57 24.457-26.68 14.45-14.34 13.562-8.562 9.449 22.234-10.781 37.352-21.68 36.019-7.89 15.785-14.34-3.554" fill="#ea9e69"/>
   <path d="m226.52 252.08c-0.778-2.223-1.668-4.445-2.446-6.672-2.445-6.777-4.89-13.449-7.336-20.23 1.223-7.449 2.446-15.008 3.668-22.567 6.891-7.558 13.895-15.121 20.789-22.679 4.11-4 8.114-8.114 12.227-12.117 3.891-2.446 7.781-4.891 11.562-7.336 2.668 6.226 5.336 12.562 8.004 18.898-3.113 10.559-6.113 21.234-9.226 31.793-6.117 10.227-12.231 20.344-18.235 30.57-2.332 4.45-4.554 8.895-6.781 13.453-4.113-1-8.113-2.113-12.226-3.113" fill="#eea46d"/>
   <path d="m229.74 244.3c-0.668-1.891-1.332-3.668-2-5.559-2-5.558-4.004-11.004-6.004-16.562 1-6.227 2-12.453 3.004-18.68 5.668-6.223 11.45-12.449 17.117-18.562 3.336-3.446 6.672-6.782 10.008-10.118 3.223-2 6.446-4 9.559-6.003 2.223 5.226 4.445 10.339 6.558 15.566-2.445 8.781-5.003 17.453-7.558 26.234-5.004 8.336-10.004 16.676-15.008 25.125-1.891 3.668-3.781 7.336-5.559 11.114-3.335-0.887-6.781-1.778-10.117-2.555" fill="#f0a570"/>
   <path d="m232.965,236.516c-.445-1.446-1.004-3.004-1.559-4.45-1.554-4.332-3.113-8.668-4.781-13.003 .781-4.891 1.668-9.786 2.445-14.676 4.45-4.782 8.895-9.672 13.453-14.563 2.559-2.668 5.227-5.336 7.895-7.894 2.445-1.664 5-3.223 7.445-4.778 1.782,4.114 3.45,8.114 5.227,12.227-2,6.894-4.004,13.785-6.004,20.566-3.891,6.672-7.891,13.231-11.785,19.789-1.442,2.891-3,5.782-4.446,8.672-2.554-.668-5.222-1.222-7.89-1.89" fill="#f3a974"/>
   <path d="m236.188,228.621c-.336-1-.778-2.113-1.114-3.113-1.109-3.223-2.332-6.336-3.445-9.559 .555-3.558 1.113-7.004 1.777-10.562 3.227-3.555 6.449-7.114 9.672-10.672 2.004-1.891 3.891-3.891 5.781-5.781 1.891-1.11 3.668-2.332 5.45-3.446 1.332,3 2.554,6.004 3.777,8.895-1.445,5-2.891,10.004-4.336,15.008-2.891,4.781-5.777,9.558-8.559,14.339-1.113,2.114-2.113,4.223-3.222,6.336-1.891-.445-3.781-.89-5.781-1.445" fill="#f7ac76"/>
   <path d="m239.41,220.84-.668-2-2.109-5.895 1-6.668 6.113-6.672 3.668-3.554 3.336-2.223 2.336,5.555-2.668,9.449-5.336,8.895-2.004,4.003-3.668-.89" fill="#f9b07a"/>
   <path d="m259.2 295.21 21.567 14.34 43.132 8.672 30.239 5.781 23.011-7.227-11.449-20.121-43.246-27.347-50.359-2.891-18.676 11.562 5.781 17.231" fill="#ea9e69"/>
   <path d="m267.65 295.21c6.114 4.113 12.227 8.117 18.34 12.23l36.688 7.336c8.558 1.668 17.121 3.223 25.679 4.891 6.45-2 13.008-4.113 19.567-6.113-3.336-5.672-6.559-11.45-9.785-17.121-12.227-7.782-24.457-15.454-36.684-23.235-14.34-0.777-28.57-1.668-42.801-2.445-5.336 3.223-10.672 6.559-15.894 9.781 1.555 4.895 3.222 9.785 4.89 14.676" fill="#eea46d"/>
   <path d="m275.98 295.21c5.114 3.336 10.118 6.672 15.121 10.117 10.114 2 20.122 4 30.235 6.004l21.125 4c5.336-1.668 10.781-3.336 16.117-5.004-2.668-4.668-5.336-9.449-8.004-14.117-10.117-6.336-20.23-12.785-30.238-19.121-11.781-0.664-23.457-1.332-35.238-2-4.336 2.668-8.786 5.336-13.118 8.004 1.332 4.004 2.668 8.117 4 12.117" fill="#f0a570"/>
   <path d="m284.43 295.21c4.004 2.668 7.894 5.227 11.894 7.894 7.895 1.555 15.785 3.223 23.68 4.778 5.558 1.004 11.117 2.113 16.676 3.113 4.222-1.332 8.449-2.555 12.671-3.891-2.113-3.777-4.222-7.449-6.335-11.117-7.895-5-15.899-10.004-23.79-15.008-9.226-0.554-18.457-1.109-27.683-1.554-3.445 2.113-6.891 4.222-10.227 6.336 1 3.113 2.114 6.226 3.114 9.449" fill="#f3a974"/>
   <path d="m292.883,295.211c2.89,1.891 5.668,3.781 8.558,5.781 5.782,1.113 11.563,2.223 17.344,3.446 4,.777 8.004,1.558 12.004,2.222 3.113-.887 6.227-1.887 9.231-2.777-1.559-2.781-3.004-5.449-4.559-8.117-5.781-3.668-11.563-7.223-17.344-10.895-6.668-.441-13.34-.777-20.121-1.223-2.445,1.559-5.004,3.114-7.449,4.672 .781,2.332 1.558,4.555 2.336,6.891" fill="#f7ac76"/>
   <path d="m301.22 295.21 5.449 3.559 10.781 2.222 7.563 1.446 5.777-1.891-2.887-5-10.785-6.781-12.562-0.782-4.782 2.891 1.446 4.336" fill="#f9b07a"/>
   <path d="m292.99 98.445c13.563 0.332 15.121 12.782 15.121 12.782l8.672 30.128s1.555 5.223 4.668 6.891l2.555-30.68 0.558-4.558 3.446-14.34 1.222-5.2266 1.114-6.3359 6.336-5.6719 13.117-9.668 15.008-16.121 1.668-1.6679 1.109-4.1133 4.004-0.5547 12.672-9.2266-0.555-0.5586 7.336-15.34-0.555-4.1133-0.554-0.5547v0.5547l-0.559 0.5547h-1.223l-1.668-2.2227 2.336-6.3359-2.336-4-1.109-1.1133-2.891 1.1133-5.113 8.5586-2.336-0.5547v-4.0039l2.336-4v-1.1133l-2.336-1.1133-4 1.668-6.226 12.008-5.227 7.4492-13.227 11.449-6.894 3.4453-6.336 5.1133-26.902 15.566-9.227 9.7812-3.891 8.0039-8.671 17.785-5.668 7.3396 14.226-7.0037zm57.586 6.8907-8.781-4.336-6.336-4.668h-1.781v-2.3359l2.449-3.8906 1.109-4.1133 0.555 0.5586 12.562-10.894 1.114 1.7773 2.89 0.5547 7.559 4.1133c-3.336 7.0039-7.336 15.121-11.34 23.234" fill="#c68e65"/>
   <path d="m290.88 88.106c5.668-4.2227 14.34-11.449 20.121-17.23h2.891c0 4.3359-1.446 11.562-1.446 15.898 1.446 0 4.336-1.4453 5.668-1.4453v-2.8906s7.227-7.2266 7.227-8.6719c2.89 0 8.672-4.3359 11.562-4.3359 0 2.4453 2.223 5.668 4.668 8.3359l8.227-6 15.008-16.121 1.668-1.6679 1.109-4.1133 4.004-0.5547 12.672-9.2266-0.555-0.5586 7.336-15.34-0.555-4.1133-0.554-0.5547v0.5547l-0.559 0.5547h-1.223l-1.668-2.2227 2.336-6.3359-2.336-4-1.109-1.1133-2.891 1.1133-5.113 8.5586-2.336-0.5547v-4.0039l2.336-4v-1.1133l-2.336-1.1133-4 1.668-6.226 12.008-5.227 7.4492-13.227 11.449-6.894 3.4453-6.336 5.1133-26.902 15.566-9.227 9.7812-3.891 8.0039-2.222 4.5586v3.2227zm53.691-7.336 5.781-5.1132 1.114 1.7773 2.89 0.5547 6.782 3.668c-6.227 1.5585-11.231 1.8906-14.231 0.7812-0.555-0.3359-1.445-0.8906-2.336-1.668" fill="#ac8567"/>
   <path d="m351.355,105.449c6.118,1.446 25.125,1.778 30.129,6.891 7.891,0 37.129,6.004 36.129-10.004l-16.785-5.4493-2.89-1.1094-4.559-.5585-20.676-8.668-6.781-2.2266-11.563-6.3359-2.89-.5547-1.114-1.7773-12.562,10.8945-.555-.5586-1.109,4.1133-2.449,3.8906v2.2266l.113.1093h1.668l6.336,4.668 8.449,4.113c.445.114.777.223 1.109.336" fill="#dd9565"/>
   <path d="m341.461,100.668c11.34-.668 31.461,7.113 40.469,1.555v-.332c5,0 10.336,1.777 15.449,1.777 0-1.777-.777-3.555-1.887-5l11.672.332-6.336-2.1133-2.89-1.1094-4.559-.5585-20.676-8.668-6.781-2.2266-11.563-6.3359-2.89-.5547-1.114-1.7773-12.562,10.8945-.555-.5586-1.109,4.1133-2.449,3.8906v2.2266l.113.1093h1.668l6,4.336" fill="#ac8567"/>
   <path d="m321.008,180.152c-1.445,5.668-14.34,23.012-14.34,25.903 5.781,0 12.895-7.227 20.121-7.227l2.113,1.445h3.668c0-1.445 1.446,2.891 2.891,2.891 0-1.445 1.445-2.891 1.445-4.336 1.446,2.891 5.668-1.109 5.668,3.223l5.781,1.445c0,4.336 3.668,1.781 5.004,4.672 4.332,0 4,7.227 5.446,4.336 0,8.559 8.672,5 8.672,13.672l3.89,5.781c0,8.559 4.336,17.231 4.336,24.457l.445-.555 .665-34.574 1.445-13.894c-.11-3.227-.442-6.34-.887-9.34l-.558-.891-2.333-7.004-1.777-1.668-2.336,3.45h-1.113l-5.113-8.563-2.332-2.332-.559,4.113v1.668l-1.109,1.11h-1.114l-8.672-12.004-1.109-1.114 1.109,8.559-1.109,1.781-.558.555-8.668-9.227 1.777,4.559-1.223,2.332h-.554l-.559.559-9.672-12.676-1.223,3.558-2.222,1.668-2.336-2.222-1.223-6.336c-.555.441-1.109.664-1.777.664v4.336h-1.445c-1.446,1.445 2.89,4.336 1.445,7.226" fill="#ce8d5f"/>
   <path d="m733.664,120.121c-.777,2.668-1.336,5.449-1.336,8.34h5.781v2.891c10.895,6.445 30.016-13.231 44.801-23.348l-1-2.555-8.004,3-16.676,10.895h-1.113l-1.664-2.336-1.113-6.891-19.676,10.004zm57.027-11.117c-.777,3.559-.777,7.894-.777,10.785h8.672c8.559-8.562 25.902-25.9023 40.242-25.9023 0,2.8906-2.89,11.5623-2.89,14.4533 11.562,0 23.011-8.672 34.574-8.672 0,2.891 2.89,5.781 2.89,8.672-3.336,0-5.004,3.445-5.113,8.226l13.449-6.449 2.891-.554 9.672-5.782 1.668-2.222v-1.223l-8.559-2.2266-1.113-1.2227 1.668-4.5547 9.226-11.4531v-1.1094l-12.007-.6679-2.332-2.8907-.559-.5546-7.445,5.2226-5.782,1.668h-6.226l-3-4v-2.336l-9.117,7.5586-14.231,2.7813-2.332-1.1133-6.894,1.668-9.782,6.3359-8.004,7.5586h-1.113l-1.777-2.8906v-1.2227h-1.777l-13.122,11.5623-1,.555" fill="#f8d3b5"/>
   <path d="m121.016,382.367 .558.668 1.223,2.668h-1c-.223-1.113-.559-2.223-.781-3.336zm8.117,9.895c4.336,6.113 7.558,11.562 13.449,17.453h1.445c1.782-2.559 2.114-5.781 2.114-8.672 1.445-.668 3.222-2.445 4.668-3.223 0-2.113 1.113-5.336 1.113-7.558 7.226-4.782 5.558-10.563 7.226-17.012l.332,1v5.672l-2.222,31.016-2.445,8.113-3.336,3.336-4.668-5.114-17.676-23.457v-1.554zm33.461-6.227-.223,11.672-1.777,15.566-2.223,6.891v.555l2.777-1.11 5.782-15.566 1.222-1.109 1.114-9.118 1.664-2.332 .445-3.558c-.109-.332-.109-.555-.109-.891-.668.445-2.782,4.336-3.559,5.113 0,0-.668.668-1.109.668-2.114-1-3.227-3.558-4.004-6.781" fill="#c68e65"/>
   <path d="m144.25,413.828 1.336.668c2.223-.668 5.113-2.891 7.227-4.226 0-4.336-1.446-12.227 3.554-14.454 0-1.332 1.223-3.445 2.336-5l-1.445,20.122-2.445,8.113-3.336,3.336-4.668-5.114-2.559-3.445zm18.012-15.344-1.668,14.789-2.223,6.891v.555l2.777-1.11 4.891-13.453c-1.332-2.554-2.668-5.113-3.777-7.672" fill="#917662"/>
   <path d="m175.82 390.59c3.446 2.113 8.781 6.226 9.336 7.449 1.445 0 3.559-1.445 5.004-1.445 2-7.118 5.668-24.571 10.449-32.239l1.778 4.668 0.668 17.786 1.777 14.453-1.223 6.226-2.332 3.446-8.562 1.777-3.446-4.668-11.449-12.563-2-4.89" fill="#c68e65"/>
   <path d="m181.824,399.82c4.449,2.223 4.672,4.668 8.34,4.668l6.559-.777c0-2.891 2.113-3.559 0-9.34 1.445-.664 2.777-2.887 4.222-4.332 0-3.559 1.446-7.894 1.446-11.453h.336l.332,8.227 1.777,14.453-1.223,6.226-2.332,3.446-8.562,1.777-3.446-4.668-7.449-8.227" fill="#917662"/>
  </g>
 </g>
</svg>
